<?xml version="1.0" standalone="no"?><!DOCTYPE svg PUBLIC "-//W3C//DTD SVG 1.1//EN" "http://www.w3.org/Graphics/SVG/1.1/DTD/svg11.dtd">
<svg t="1625631521758" class="icon" viewBox="0 0 1024 1024" version="1.1"
  xmlns="http://www.w3.org/2000/svg" p-id="2050"
  xmlns:xlink="http://www.w3.org/1999/xlink" width="200" height="200">
  <defs>
    <style type="text/css"></style>
  </defs>
  <path d="M273.493 876.907s518.72 120.746 630.614 9.92C952.96 838.507 749.227 777.28 463.04 808c-147.947 15.787-189.547 68.907-189.547 68.907z" fill="#EFEFEF" p-id="2051"></path>
  <path d="M855.893 734.72c1.707 111.253-122.346 169.387-224 164.8-112.746-5.12-167.253-109.867-153.28-210.667S585.6 517.547 686.4 531.52s167.893 101.44 169.493 203.2z" fill="#EE3C2B" p-id="2052"></path>
  <path d="M577.707 562.88s-33.067 15.893-29.014 31.787 1.067-12.48 14.294-15.894c13.226-3.413 16-18.666 22.933-15.893s-8.213 0-8.213 0z" fill="#FFFFFF" p-id="2053"></path>
  <path d="M701.653 534.293c52.587 37.227 84.587 100.48 85.76 170.347 1.707 111.253-122.346 169.387-224 164.8-7.466-0.32-14.72-1.173-21.653-2.347 23.893 18.774 53.973 30.72 90.133 32.427 101.654 4.587 225.707-53.547 224-164.8-1.493-96.533-61.973-180.16-154.24-200.427z" fill="#DA2C00" p-id="2054"></path>
  <path d="M562.314 603.226a17.173 38.507 66.596 1 0 70.677-30.59 17.173 38.507 66.596 1 0-70.677 30.59z" fill="#DE2E13" p-id="2055"></path>
  <path d="M572.694 598.759a11.947 23.253 66.596 1 0 42.68-18.473 11.947 23.253 66.596 1 0-42.68 18.473z" fill="#D92E0E" p-id="2056"></path>
  <path d="M478.613 688.747c-10.026 72.853 4.8 135.04 63.147 178.346 77.44-142.826-13.973-275.733-16-277.546-35.947 28.48-40.427 50.346-47.147 99.2z" fill="#D93510" p-id="2057"></path>
  <path d="M580.48 595.52s23.893 8.213 24.107-10.347c-9.814-52.906-122.774-312.426 20.586-400.32 15.254-10.24-4.48-25.493-31.36-5.333-27.413 20.48-87.04 147.84-13.333 416z" fill="#7FDB56" p-id="2058"></path>
  <path d="M553.813 361.28l-0.106-0.107s0.106 0.534 0.106 1.28v-1.173z m35.52 235.947c6.827 0.533 15.147-1.067 15.254-12.054-4.694-25.173-32.747-97.386-45.334-175.466 6.294 52.373 17.387 135.466 30.08 187.52z" fill="#4FA41A" p-id="2059"></path>
  <path d="M362.667 521.707s8 40.213 32.106 17.6c25.6-64.534 61.227-414.4 305.494-432.427 25.173-2.347 12.693-31.04-33.174-24.533-46.4 6.613-202.56 97.92-304.426 439.36z" fill="#7FDB56" p-id="2060"></path>
  <path d="M701.44 85.227c-7.68-3.307-19.093-5.014-34.24-2.88-20.053 2.773-60.267 21.333-107.733 68.586 35.52-24.853 95.786-61.973 141.973-65.706z" fill="#99E674" p-id="2061"></path>
  <path d="M384.107 526.613c-1.707 6.827-3.2 13.334-4.587 19.52 4.16 0.64 9.28-1.066 15.36-6.72 14.08-35.52 31.253-157.226 84.373-262.613-33.493 58.133-68.48 139.2-95.146 249.813z" fill="#4FA41A" p-id="2062"></path>
  <path d="M590.08 143.787l0.107-0.32s-1.494 0.96-4.054 2.773a79.47 79.47 0 0 0 3.947-2.453z" fill="#50AE1E" p-id="2063"></path>
  <path d="M518.4 782.827c-64.533 104.64-173.547 132.693-299.733 62.293-117.227-65.493-143.68-191.147-79.147-295.787 44.053-71.573 118.293-107.413 167.573-71.573 60.694 44.16 130.027 52.053 160.214 65.707C567.68 588.8 569.387 700.16 518.4 782.827z" fill="#EE3C2B" p-id="2064"></path>
  <path d="M445.013 672.853a11.947 11.947 0 1 0 23.894 0 11.947 11.947 0 1 0-23.894 0z" fill="#FFFFFF" p-id="2065"></path>
  <path d="M471.253 545.493C498.24 598.187 488 666.347 453.867 721.707 389.333 826.347 280.32 854.4 154.133 784c-4.8-2.667-9.28-5.653-13.76-8.533 18.667 26.88 44.694 50.773 78.4 69.653 126.294 70.507 235.307 42.347 299.734-62.293 50.133-81.494 48.96-190.72-47.254-237.334z" fill="#DA2C00" p-id="2066"></path>
  <path d="M510.933 794.24v-5.973c-2.56 4.16-105.706 107.626-261.76 68.906-4.586-1.173-8.96-2.133-13.013-2.986C350.293 910.4 448.853 884.8 510.933 794.24z" fill="#FFFFFF" p-id="2067"></path>
  <path d="M249.28 857.28c-123.947-69.227-151.893-202.133-83.733-312.747 23.04-37.333 53.76-65.386 85.226-79.786-39.68 5.546-82.026 37.12-111.36 84.586-64.533 104.64-38.08 230.294 79.147 295.787 18.667 10.453 36.907 18.453 54.827 24.64-7.894-3.84-16-8-24.107-12.48z" fill="#FFFFFF" p-id="2068"></path>
  <path d="M214.144 580.292a26.773 37.44 56.72 1 0 62.6-41.09 26.773 37.44 56.72 1 0-62.6 41.09z" fill="#FFFFFF" p-id="2069"></path>
  <path d="M260.907 559.787a14.933 14.933 0 1 0 29.866 0 14.933 14.933 0 1 0-29.866 0z" fill="#FFFFFF" p-id="2070"></path>
  <path d="M794.133 313.813s-18.986-183.253-196.8-183.146c0 0-45.226 181.76 196.8 183.146z" fill="#63BF37" p-id="2071"></path>
  <path d="M607.68 145.6s102.613 55.253 142.187 143.253" fill="#59B629" p-id="2072"></path>
  <path d="M580.693 656.533a19.627 19.627 0 1 0 39.254 0 19.627 19.627 0 1 0-39.254 0z" fill="#FFFFFF" p-id="2073"></path>
  <path d="M616.298 668.113a12.053 11.84 22.488 1 0 9.058-21.88 12.053 11.84 22.488 1 0-9.058 21.88zM623.467 548.16c-3.84-0.853 40.96-2.88 44.906 22.4 3.947 25.28-27.093 41.92-45.226 43.627-21.227 2.026 19.946-9.92 27.84-23.894 7.786-13.76 3.2-35.093-27.52-42.133z" fill="#FFFFFF" p-id="2074"></path>
</svg>